<?xml version="1.0" standalone="no"?>
<!DOCTYPE svg PUBLIC "-//W3C//DTD SVG 20010904//EN"
 "http://www.w3.org/TR/2001/REC-SVG-20010904/DTD/svg10.dtd">
<svg version="1.0" xmlns="http://www.w3.org/2000/svg"
 width="840.000000pt" height="722.000000pt" viewBox="0 0 840.000000 722.000000"
 preserveAspectRatio="xMidYMid meet">

<g transform="translate(0.000000,722.000000) scale(0.100000,-0.100000)"
fill="#000000" stroke="none">
<path d="M528 6810 c-165 -21 -297 -156 -319 -327 -12 -100 -11 -5762 1 -5842
21 -125 97 -229 209 -284 l66 -32 3715 0 3715 0 65 31 c83 39 145 101 184 184
l31 65 0 2965 0 2965 -26 55 c-56 118 -163 199 -289 219 -75 13 -7258 13
-7352 1z m7359 -263 c69 -36 63 226 63 -2979 0 -2862 0 -2903 -20 -2935 -10
-18 -33 -39 -49 -48 -27 -13 -404 -15 -3676 -15 -3355 0 -3650 1 -3681 16 -19
9 -42 31 -51 48 -16 29 -17 248 -18 2901 -1 1579 2 2892 5 2918 9 63 43 98
102 106 24 4 1674 6 3668 6 3402 -1 3627 -2 3657 -18z"/>
<path d="M2210 5810 c-328 -28 -613 -162 -851 -399 -194 -195 -318 -424 -374
-691 -24 -113 -36 -270 -25 -335 20 -122 95 -224 208 -281 l57 -29 1100 0
1100 0 66 32 c79 39 140 102 177 181 25 53 27 66 27 197 -1 206 -42 380 -136
569 -215 431 -631 713 -1115 755 -65 6 -126 10 -134 9 -8 0 -53 -4 -100 -8z
m305 -261 c38 -6 110 -23 159 -40 438 -147 748 -543 773 -989 5 -87 3 -111
-11 -138 -32 -63 -29 -62 -516 -60 l-440 3 171 285 c94 157 173 299 176 316 7
39 -20 97 -55 120 -35 23 -101 24 -135 2 -16 -11 -106 -151 -239 -373 l-212
-355 -446 0 c-423 0 -447 1 -477 20 -46 28 -56 54 -54 143 10 553 461 1031
1015 1077 97 8 179 5 291 -11z"/>
<path d="M4524 5801 c-78 -36 -74 9 -74 -855 0 -832 -1 -810 55 -854 33 -26
92 -29 135 -7 62 32 60 -2 60 857 0 758 -1 784 -20 815 -34 56 -93 73 -156 44z"/>
<path d="M5774 5801 c-71 -32 -74 -48 -74 -361 0 -294 2 -307 56 -349 32 -25
92 -28 134 -6 57 30 60 46 60 357 0 263 -1 285 -20 315 -34 56 -93 73 -156 44z"/>
<path d="M7022 5800 c-77 -35 -73 24 -70 -1001 l3 -911 37 -34 c30 -27 46 -34
79 -34 49 0 90 22 113 60 14 25 16 113 16 935 0 979 2 942 -52 977 -41 27 -80
29 -126 8z"/>
<path d="M5745 4809 c-239 -40 -415 -246 -415 -489 0 -145 45 -254 146 -356
58 -59 168 -124 208 -124 15 0 16 -75 16 -839 l0 -838 23 -34 c28 -41 60 -59
111 -59 31 0 45 7 77 39 l39 39 0 841 c0 793 1 842 18 847 234 76 389 316 353
546 -21 131 -65 212 -161 302 -70 65 -141 101 -235 121 -77 16 -105 17 -180 4z
m151 -254 c151 -44 223 -217 149 -354 -80 -147 -260 -176 -385 -64 -62 56 -84
110 -78 197 5 86 44 149 117 193 74 44 120 51 197 28z"/>
<path d="M4474 3805 c-96 -21 -172 -63 -245 -135 -102 -100 -149 -212 -149
-349 0 -121 32 -212 111 -317 42 -58 136 -125 210 -151 l49 -18 0 -328 c0
-363 3 -381 62 -417 18 -11 50 -20 72 -20 31 0 45 7 77 39 l39 39 0 341 c0
316 1 342 18 348 189 65 320 216 352 403 36 211 -79 431 -272 524 -115 54
-208 66 -324 41z m175 -251 c148 -43 220 -217 146 -352 -59 -109 -176 -156
-299 -120 -55 16 -138 99 -154 154 -40 138 30 279 158 319 59 18 86 18 149 -1z"/>
<path d="M1273 3550 c-43 -26 -66 -63 -66 -108 0 -49 16 -78 56 -102 31 -19
55 -20 565 -20 585 0 576 -1 607 60 22 42 19 102 -6 134 -45 57 -33 56 -601
56 -501 0 -524 -1 -555 -20z"/>
<path d="M2773 3554 c-86 -43 -92 -164 -11 -214 31 -19 50 -20 316 -20 311 0
327 3 357 60 35 69 8 147 -61 176 -52 22 -557 20 -601 -2z"/>
<path d="M6985 3560 c-193 -42 -342 -182 -391 -365 -21 -75 -18 -201 6 -278
24 -77 85 -173 143 -223 44 -38 166 -104 192 -104 13 0 15 -29 15 -214 0 -205
1 -214 23 -247 30 -45 63 -61 116 -56 32 4 52 13 75 36 l31 31 3 225 c3 197 5
225 19 225 8 0 43 14 77 30 311 154 375 567 125 810 -82 79 -197 128 -319 135
-41 2 -93 0 -115 -5z m161 -255 c104 -31 176 -126 176 -233 1 -78 -24 -133
-84 -187 -98 -88 -226 -88 -325 -1 -59 51 -83 104 -83 181 0 112 68 208 170
240 59 18 86 18 146 0z"/>
<path d="M1273 3054 c-20 -10 -40 -32 -54 -60 -19 -40 -20 -48 -7 -86 9 -28
24 -50 47 -65 l34 -23 784 0 c860 0 826 -2 858 60 22 43 19 102 -7 135 -44 56
-22 55 -855 55 -680 0 -772 -2 -800 -16z"/>
<path d="M1271 2553 c-86 -42 -86 -174 0 -219 43 -22 1826 -21 1869 1 59 30
80 127 39 179 -46 59 2 56 -976 56 -819 0 -901 -2 -932 -17z"/>
<path d="M1022 1553 c-59 -29 -67 -58 -67 -238 0 -141 2 -163 19 -188 37 -54
108 -72 166 -42 53 27 60 57 60 235 0 182 -7 207 -64 234 -43 20 -72 20 -114
-1z"/>
<path d="M1639 1547 c-56 -38 -60 -54 -57 -239 l3 -168 31 -31 c59 -58 151
-47 194 24 18 28 20 51 20 187 0 136 -2 159 -20 187 -38 63 -112 80 -171 40z"/>
<path d="M2275 1556 c-60 -27 -70 -55 -73 -216 -4 -171 6 -213 57 -247 60 -41
139 -24 175 37 13 23 16 58 16 194 l0 166 -33 36 c-37 41 -93 53 -142 30z"/>
<path d="M2890 1548 c-55 -37 -60 -55 -60 -236 l0 -162 33 -36 c62 -68 168
-51 203 31 20 48 20 302 0 350 -29 68 -115 94 -176 53z"/>
<path d="M3512 1550 c-52 -32 -62 -70 -62 -230 0 -100 4 -151 14 -175 35 -82
141 -99 203 -31 l33 36 0 170 0 170 -33 36 c-42 46 -104 56 -155 24z"/>
<path d="M4154 1560 c-11 -4 -33 -22 -47 -40 -27 -31 -27 -32 -27 -201 l0
-169 33 -36 c62 -68 168 -51 203 31 20 48 20 302 0 350 -25 59 -101 90 -162
65z"/>
<path d="M4762 1550 c-52 -32 -62 -69 -62 -230 0 -100 4 -151 14 -175 35 -82
141 -99 203 -31 l33 36 0 169 c0 156 -2 170 -21 195 -44 56 -110 70 -167 36z"/>
<path d="M5404 1560 c-11 -4 -33 -22 -47 -40 -27 -31 -27 -32 -27 -197 0 -135
3 -170 16 -193 36 -59 111 -77 172 -40 52 32 62 69 62 232 0 120 -3 149 -18
178 -30 56 -101 83 -158 60z"/>
<path d="M6013 1550 c-56 -33 -63 -61 -63 -232 0 -134 2 -157 20 -185 43 -71
135 -82 194 -24 l31 31 3 168 c3 185 -1 201 -57 239 -42 28 -86 29 -128 3z"/>
<path d="M6644 1554 c-57 -28 -64 -54 -64 -234 0 -178 7 -208 60 -235 58 -30
129 -12 166 42 16 24 20 51 22 175 3 130 2 151 -17 192 -30 69 -99 94 -167 60z"/>
<path d="M7263 1550 c-56 -33 -63 -61 -63 -232 0 -134 2 -157 20 -185 43 -71
135 -82 194 -24 l31 31 3 164 c3 136 1 170 -13 196 -20 38 -70 70 -110 70 -16
0 -44 -9 -62 -20z"/>
</g>
</svg>
